PathFileType	4	(X/Y/Z)	RBDS011static.trc
DataRate	CameraRate	NumFrames	NumMarkers	Units	OrigDataRate	OrigDataStartFrame	OrigNumFrames
150.000000	150.000000	4	48	mm	150.000000	0	150
Frame#	Time	L.Ankle			L.Ankle.Medial			L.ASIS			L.GTR			L.Heel.Bottom			L.Heel.Lateral			L.Heel.Top			L.HF			L.Iliac.Crest			L.Knee			L.Knee.Medial			L.MT1			L.MT2			L.MT5			L.PSIS			L.Shank.Bottom.Lateral			L.Shank.Bottom.Medial			L.Shank.Top.Lateral			L.Shank.Top.Medial			L.Thigh.Bottom.Lateral			L.Thigh.Bottom.Medial			L.Thigh.Top.Lateral			L.Thigh.Top.Medial			L.TT			R.Ankle			R.Ankle.Medial			R.ASIS			R.GTR			R.Heel.Bottom			R.Heel.Lateral			R.Heel.Top			R.HF			R.Iliac.Crest			R.Knee			R.Knee.Medial			R.MT1			R.MT2			R.MT5			R.PSIS			R.Shank.Bottom.Lateral			R.Shank.Bottom.Medial			R.Shank.Top.Lateral			R.Shank.Top.Medial			R.Thigh.Bottom.Lateral			R.Thigh.Bottom.Medial			R.Thigh.Top.Lateral			R.Thigh.Top.Medial			R.TT			
		X1	Y1	Z1	X2	Y2	Z2	X3	Y3	Z3	X4	Y4	Z4	X5	Y5	Z5	X6	Y6	Z6	X7	Y7	Z7	X8	Y8	Z8	X9	Y9	Z9	X10	Y10	Z10	X11	Y11	Z11	X12	Y12	Z12	X13	Y13	Z13	X14	Y14	Z14	X15	Y15	Z15	X16	Y16	Z16	X17	Y17	Z17	X18	Y18	Z18	X19	Y19	Z19	X20	Y20	Z20	X21	Y21	Z21	X22	Y22	Z22	X23	Y23	Z23	X24	Y24	Z24	X25	Y25	Z25	X26	Y26	Z26	X27	Y27	Z27	X28	Y28	Z28	X29	Y29	Z29	X30	Y30	Z30	X31	Y31	Z31	X32	Y32	Z32	X33	Y33	Z33	X34	Y34	Z34	X35	Y35	Z35	X36	Y36	Z36	X37	Y37	Z37	X38	Y38	Z38	X39	Y39	Z39	X40	Y40	Z40	X41	Y41	Z41	X42	Y42	Z42	X43	Y43	Z43	X44	Y44	Z44	X45	Y45	Z45	X46	Y46	Z46	X47	Y47	Z47	X48	Y48	Z48	

1	0	713.99365234375	107.4444885253906	1037.259033203125	735.5174560546875	120.8154907226563	1120.52294921875	880.9437866210938	1029.019287109375	1087.201049804688	822.3261108398438	919.9498291015625	1032.85986328125	639.005859375	42.63711929321289	1083.902709960938	663.38330078125	57.29547119140625	1044.91552734375	649.6583862304688	91.30072021484375	1085.6015625	751.447509765625	471.3030700683594	1035.397216796875	809.9013061523438	1089.782104492188	1049.916625976563	756.609375	537.7235717773438	1040.603149414063	761.6876220703125	517.8244018554688	1161.81005859375	864.8245239257813	54.44736099243164	1124.968383789063	876.5890502929688	66.30792999267578	1077.375	836.2423706054688	49.41104507446289	1009.177368164063	706.8987426757813	1043.409423828125	1152.267456054688	707.4439697265625	189.0081939697266	1035.279663085938	672.6107788085938	193.0930786132813	1077.925903320313	704.8679809570313	269.0253601074219	1026.341918945313	672.4931640625	273.6268005371094	1069.59814453125	778.5883178710938	646.5115356445313	1026.4453125	717.5806884765625	647.2857055664063	1066.65478515625	772.5588989257813	756.6851196289063	1021.786376953125	718.503662109375	757.8367919921875	1064.640502929688	813.518798828125	456.0622863769531	1080.714477539063	714.2266235351563	107.8397750854492	1416.339233398438	736.4730224609375	126.0692443847656	1334.03173828125	864.3887939453125	1033.084228515625	1342.1181640625	803.7352294921875	924.5371704101563	1396.961059570313	640.0400390625	43.83632278442383	1374.720581054688	666.6986694335938	64.27024841308594	1414.723266601563	650.79736328125	93.70054626464844	1373.702514648438	750.57568359375	476.7153015136719	1408.727294921875	798.6378173828125	1081.929809570313	1368.507690429688	760.1155395507813	539.0629272460938	1402.4619140625	764.1633911132813	523.3084716796875	1280.259399414063	861.8350219726563	57.80185699462891	1327.248291015625	870.4904174804688	71.48991394042969	1372.984008789063	841.9236450195313	49.2357063293457	1444.39501953125	699.84716796875	1046.874633789063	1254.021240234375	701.3270874023438	182.2751159667969	1414.094604492188	669.3871459960938	190.7394104003906	1374.970703125	705.3878784179688	266.5527954101563	1425.29052734375	671.3110961914063	270.1648559570313	1383.872192382813	759.6152954101563	655.2333984375	1407.6005859375	707.3502807617188	655.4578247070313	1355.139404296875	755.0763549804688	764.7689208984375	1408.759399414063	706.7012329101563	766.0477905273438	1359.500122070313	812.0131225585938	460.4029235839844	1371.53369140625	
2	0.006666666666666667	713.989990234375	107.442008972168	1037.263916015625	735.5169067382813	120.8014068603516	1120.5244140625	880.9920654296875	1029.076293945313	1087.3984375	822.3057250976563	919.9462890625	1032.889526367188	639.0133666992188	42.63066101074219	1083.907470703125	663.3955078125	57.28952789306641	1044.91357421875	649.660400390625	91.30865478515625	1085.597045898438	751.4395751953125	471.3070068359375	1035.402465820313	809.88916015625	1089.778442382813	1049.940551757813	756.5853881835938	537.7210083007813	1040.61328125	761.73486328125	517.8656616210938	1162.044921875	864.8230590820313	54.44772720336914	1124.966186523438	876.5890502929688	66.30565643310547	1077.380249023438	836.2467651367188	49.40980529785156	1009.176940917969	706.898193359375	1043.41162109375	1152.308959960938	707.435791015625	189.0074157714844	1035.2802734375	672.6054077148438	193.0893707275391	1077.941040039063	704.8674926757813	269.0241394042969	1026.35205078125	672.4909057617188	273.6232604980469	1069.606567382813	778.5714111328125	646.5036010742188	1026.469482421875	717.5687866210938	647.2923583984375	1066.67333984375	772.5462036132813	756.6797485351563	1021.822143554688	718.4866333007813	757.8384399414063	1064.671508789063	813.5126342773438	456.068359375	1080.732177734375	714.2340087890625	107.8300170898438	1416.322265625	736.4583740234375	126.0728912353516	1334.028564453125	864.39453125	1033.08349609375	1342.150268554688	803.7452392578125	924.53271484375	1396.980590820313	640.0359497070313	43.83595657348633	1374.716918945313	666.7003784179688	64.25702667236328	1414.72509765625	650.7962036132813	93.69583892822266	1373.712036132813	750.5781860351563	476.7134399414063	1408.741943359375	798.654541015625	1081.932373046875	1368.5380859375	760.1161499023438	539.0501098632813	1402.480590820313	764.1520385742188	523.3084106445313	1280.272583007813	861.8297729492188	57.80172348022461	1327.245727539063	870.4903564453125	71.48667907714844	1372.982788085938	841.9278564453125	49.23638916015625	1444.39990234375	699.860107421875	1046.877563476563	1254.062744140625	701.327880859375	182.2718200683594	1414.099243164063	669.3916625976563	190.7330017089844	1374.96826171875	705.3862915039063	266.5411376953125	1425.294067382813	671.3218383789063	270.1593017578125	1383.881469726563	759.6201171875	655.2249145507813	1407.623779296875	707.3484497070313	655.4491577148438	1355.169921875	755.0926513671875	764.7647705078125	1408.796997070313	706.70458984375	766.0392456054688	1359.544799804688	812.0132446289063	460.4043579101563	1371.548461914063	
3	0.01333333333333333	713.982421875	107.4482574462891	1037.264282226563	735.5164184570313	120.8032379150391	1120.514404296875	880.9571533203125	1029.035888671875	1087.317138671875	822.296142578125	919.953857421875	1032.914428710938	639.013916015625	42.62968063354492	1083.909423828125	663.3890380859375	57.29495239257813	1044.904663085938	649.6634521484375	91.30538177490234	1085.592407226563	751.4207763671875	471.31494140625	1035.415161132813	809.88037109375	1089.76025390625	1049.964599609375	756.57470703125	537.7274169921875	1040.633544921875	761.7163696289063	517.8570556640625	1162.059936523438	864.8231201171875	54.45441436767578	1124.960815429688	876.5780029296875	66.30259704589844	1077.37158203125	836.243408203125	49.40903472900391	1009.171447753906	706.8926391601563	1043.412719726563	1152.341796875	707.4324340820313	189.0166931152344	1035.283447265625	672.60009765625	193.0871734619141	1077.9462890625	704.856201171875	269.0279541015625	1026.351928710938	672.4837036132813	273.6205749511719	1069.616943359375	778.565185546875	646.5092163085938	1026.47802734375	717.5543823242188	647.2861938476563	1066.688354492188	772.5369262695313	756.681640625	1021.841857910156	718.4761962890625	757.8370361328125	1064.697875976563	813.497802734375	456.0698852539063	1080.732421875	714.2355346679688	107.8317489624023	1416.335815429688	736.4768676757813	126.0722961425781	1334.029418945313	864.4013061523438	1033.079345703125	1342.173828125	803.7533569335938	924.5346069335938	1397.008056640625	640.0386352539063	43.83152008056641	1374.725952148438	666.7010498046875	64.25997161865234	1414.725463867188	650.8013305664063	93.69075775146484	1373.711791992188	750.5692749023438	476.7130737304688	1408.758178710938	798.6651611328125	1081.932250976563	1368.559326171875	760.1166381835938	539.04736328125	1402.4951171875	764.1492919921875	523.3084716796875	1280.289306640625	861.8258056640625	57.80994033813477	1327.250854492188	870.4921264648438	71.4796142578125	1372.981323242188	841.9237670898438	49.23318862915039	1444.39501953125	699.8607177734375	1046.888549804688	1254.088989257813	701.32568359375	182.2693481445313	1414.103515625	669.3873291015625	190.7297058105469	1374.975952148438	705.3833618164063	266.5418395996094	1425.29736328125	671.3126831054688	270.1627807617188	1383.88134765625	759.6292114257813	655.228515625	1407.639038085938	707.3551025390625	655.4581298828125	1355.197998046875	755.1052856445313	764.7725219726563	1408.8271484375	706.7054443359375	766.0533447265625	1359.58447265625	812.011474609375	460.3990478515625	1371.563598632813	
4	0.02	713.992919921875	107.4489288330078	1037.267456054688	735.5137939453125	120.805290222168	1120.524658203125	880.9559936523438	1029.021484375	1087.350341796875	822.2886352539063	919.9430541992188	1032.931030273438	639.011474609375	42.63412475585938	1083.91357421875	663.3930053710938	57.28996276855469	1044.905151367188	649.6638793945313	91.30901336669922	1085.593505859375	751.4098510742188	471.314453125	1035.43115234375	809.8792724609375	1089.746337890625	1049.990356445313	756.5632934570313	537.7330322265625	1040.648193359375	761.6354370117188	517.8084106445313	1161.852905273438	864.8157348632813	54.44927215576172	1124.967407226563	876.59228515625	66.30215454101563	1077.379150390625	836.2466430664063	49.40554428100586	1009.171325683594	706.8967895507813	1043.420532226563	1152.377075195313	707.4320068359375	189.0095825195313	1035.292724609375	672.6061401367188	193.0852813720703	1077.93408203125	704.84912109375	269.0359497070313	1026.352172851563	672.4777221679688	273.6214599609375	1069.617065429688	778.55908203125	646.5081176757813	1026.502807617188	717.5440063476563	647.282958984375	1066.702880859375	772.5347290039063	756.6777954101563	1021.857788085938	718.4684448242188	757.8262939453125	1064.731323242188	813.4967651367188	456.0706176757813	1080.741333007813	714.2236938476563	107.8308792114258	1416.330810546875	736.473876953125	126.0777206420898	1334.031494140625	864.419189453125	1033.077758789063	1342.1982421875	803.7586669921875	924.5376586914063	1397.042358398438	640.0428466796875	43.83359146118164	1374.728149414063	666.7022705078125	64.26484680175781	1414.723876953125	650.8001098632813	93.70024871826172	1373.70361328125	750.5721435546875	476.7033996582031	1408.78076171875	798.6689453125	1081.923217773438	1368.608276367188	760.124755859375	539.0473022460938	1402.50634765625	764.1412963867188	523.31640625	1280.29541015625	861.822998046875	57.80482864379883	1327.251586914063	870.489990234375	71.48844909667969	1372.985107421875	841.923828125	49.23019409179688	1444.396118164063	699.8734741210938	1046.893310546875	1254.132446289063	701.3244018554688	182.2687072753906	1414.111083984375	669.3975830078125	190.7308044433594	1374.985961914063	705.3885498046875	266.5328674316406	1425.306884765625	671.3132934570313	270.1660461425781	1383.893310546875	759.639404296875	655.2208251953125	1407.685424804688	707.3575439453125	655.4558715820313	1355.22705078125	755.1203002929688	764.76318359375	1408.855346679688	706.7053833007813	766.0496826171875	1359.611572265625	812.00634765625	460.4007873535156	1371.575073242188	
